<svg width="50" height="51" viewBox="0 0 50 51" fill="none" xmlns="http://www.w3.org/2000/svg">
<path fill-rule="evenodd" clip-rule="evenodd" d="M23.7038 4.68179C20.3696 3.82428 19.7268 4.06544 17.7793 6.9043C18.4914 4.13667 18.446 3.22358 16.787 1.87966C7.09365 5.22998 0.131958 14.4363 0.131958 25.2687C0.131958 31.6036 2.51292 37.3824 6.42879 41.7591L18.7114 30.485C19.8734 31.278 21.0451 32.0497 22.2252 32.791C23.4067 33.5308 24.6065 34.2515 25.818 34.9403C25.818 34.9403 24.1056 42.9956 22.5618 49.9026C23.3225 49.973 24.0932 50.009 24.8723 50.009C33.6531 50.009 41.3654 45.4346 45.7563 38.5389C44.1509 38.6963 42.1123 38.4929 39.7821 37.9619C40.4572 37.8251 40.982 37.5361 41.285 37.0206C42.3182 35.221 39.5468 32.4196 38.1508 31.1139C36.7986 29.8536 35.3118 28.6919 33.8012 27.6066C31.9861 26.3158 30.0874 25.1092 28.1526 23.9924C26.2162 22.8689 24.2267 21.8285 22.1918 20.9109C20.5067 20.1439 18.7448 19.4302 16.9844 18.8909C15.1549 18.3371 11.3436 17.3349 10.3026 19.1345C10.0074 19.6506 10.0152 20.258 10.2428 20.9036C6.90109 17.3055 5.38431 14.0861 6.51506 12.1348C7.95649 9.62916 13.3775 9.8423 20.2869 12.2256C22.055 9.21112 28.3864 9.59871 34.4385 13.0988C39.5328 16.0369 42.8116 20.2353 42.7125 23.3019C38.3169 19.7115 33.2464 17.0237 27.7882 15.414C29.1228 16.0823 30.4827 16.811 31.8411 17.6007C40.0461 22.3353 46.3137 27.9343 48.6337 32.1823C49.271 29.9882 49.6127 27.6683 49.6127 25.2687C49.6127 19.4766 47.6223 14.1494 44.2882 9.93377C43.5588 10.5771 42.5302 10.8529 41.5214 10.5783C39.9267 10.1442 38.9855 8.49991 39.4195 6.90522C39.542 6.45526 39.7609 6.05738 40.0477 5.72774C35.8576 2.46899 30.5916 0.52832 24.8723 0.52832C23.5782 0.52832 22.3073 0.627681 21.0668 0.819187C20.907 2.49523 21.5759 3.22221 23.7038 4.68179ZM19.2244 1.17593C18.9437 1.30955 18.6463 1.38415 18.3104 1.40792C18.6128 1.32496 18.9175 1.24759 19.2244 1.17593ZM27.0066 41.2379C31.1301 42.2973 31.9245 41.9997 34.3325 38.4892C33.2724 42.6113 33.5707 43.4064 37.0806 45.8151C32.9591 44.755 32.164 45.0526 29.7553 48.5625C30.8161 44.4397 30.5171 43.6453 27.0066 41.2379ZM27.3011 25.4659C34.6801 29.7324 39.9422 34.4397 39.0535 35.9807C38.4316 37.0588 34.9691 36.3146 30.4214 34.3106C28.4633 33.4446 26.2994 32.3438 24.0678 31.0608C21.8424 29.7778 19.8075 28.4494 18.0848 27.1814C14.0758 24.251 11.7003 21.6241 12.3154 20.546C13.2103 19.0055 19.9221 21.2071 27.3011 25.4659ZM10.6822 31.2257C8.47913 29.7139 8.29113 29.2159 8.95694 26.6277C7.44646 28.8314 6.9471 29.0188 4.35957 28.3523C6.56263 29.8641 6.75062 30.3628 6.08481 32.9503C7.59529 30.7466 8.09465 30.5593 10.6822 31.2257Z" fill="#19E48C"/>
</svg>
